# xmcd
#
# Track frame offsets:
#	150
#	11950
#	25077
#	44831
#	57722
#	73459
#	88411
#	105072
#	116820
#	131751
#	145752
#	163461
#	177673
#	184294
#
# Disc length: 2630 seconds
#
# Revision: 1
# Processed by: cddbd v1.5.2PL0 Copyright (c) Steve Scherf et al.
# Submitted via: audiograbber 1.83.01
#
DISCID=e30a440e
DTITLE=Lyndon Reid - Make A Start
DYEAR=2002
DGENRE=Indigenous Country
TTITLE0=Prove It To You
TTITLE1=Being A Fool
TTITLE2=Love's Just Old
TTITLE3=I'll Always Wait
TTITLE4=Wondering Why
TTITLE5=In the Fireline
TTITLE6=Pain Within My heart
TTITLE7=Time to Lose
TTITLE8=Make A Start
TTITLE9=The Gahn
TTITLE10=Both Cannot Hide
TTITLE11=How Do You Feel
TTITLE12=Is it Me or is it You?
TTITLE13=For Old Times Sake
EXTD=Released on CAAMA Music,\nAlice Springs NT Australia\nAustralian Indigenou
EXTD=s Artist
EXTT0=
EXTT1=
EXTT2=
EXTT3=
EXTT4=
EXTT5=
EXTT6=
EXTT7=
EXTT8=Title Track for the Album
EXTT9=The Gahn is a train that runs from Adelaide to Alice Springs
EXTT10=
EXTT11=
EXTT12=
EXTT13=
PLAYORDER=
